<svg xmlns="http://www.w3.org/2000/svg" width="589" height="588" viewBox="0 0 589 588">
<g>
<path d="M 167.00,373.57 L 164.34,372.98 L 159.16,371.44 L 156.59,370.62 L 151.64,368.63 L 149.19,367.58 L 144.48,365.16 L 142.17,363.90 L 137.75,361.07 L 135.58,359.61 L 131.48,356.39 L 129.48,354.74 L 125.73,351.16 L 123.90,349.33 L 120.54,345.40 L 115.97,339.16 L 114.68,337.20 L 112.37,333.18 L 111.25,331.16 L 109.29,327.01 L 108.34,324.91 L 106.71,320.58 L 105.94,318.39 L 104.63,313.85 L 104.02,311.55 L 103.04,306.77 L 102.58,304.35 L 101.91,299.30 L 101.61,296.74 L 101.24,291.40 L 101.01,283.00 L 101.01,279.34 L 101.28,272.67 L 101.46,269.43 L 102.12,263.48 L 102.50,260.57 L 103.57,255.17 L 105.66,247.50 L 106.85,243.87 L 109.77,237.06 L 111.32,233.73 L 114.97,227.54 L 116.89,224.52 L 121.25,218.95 L 123.52,216.25 L 128.57,211.33 L 131.18,208.95 L 136.91,204.69 L 139.85,202.65 L 146.24,199.07 L 149.51,197.36 L 156.53,194.48 L 167.77,190.95 L 168.94,190.65 L 171.84,190.05 L 173.37,189.75 L 176.85,189.17 L 178.64,188.88 L 182.51,188.34 L 184.48,188.07 L 188.56,187.59 L 192.66,187.12 L 200.73,186.45 L 202.68,186.31 L 206.31,186.13 L 211.20,186.01 L 213.13,186.01 L 217.25,186.17 L 219.34,186.27 L 223.68,186.63 L 228.07,187.03 L 237.09,188.36 L 241.56,189.10 L 250.13,190.99 L 252.20,191.50 L 256.12,192.59 L 261.54,194.33 L 262.09,194.53 L 263.67,195.17 L 264.52,195.53 L 266.50,196.40 L 272.76,199.38 L 273.75,199.88 L 275.60,200.79 L 276.49,201.22 L 278.02,201.94 L 278.73,202.26 L 279.76,202.71 L 280.57,203.00 L 280.65,203.00 L 280.78,202.59 L 280.84,202.32 L 280.90,201.46 L 280.93,200.98 L 280.93,199.79 L 280.84,197.75 L 280.50,192.50 L 326.12,192.24 L 328.35,192.23 L 332.53,192.21 L 334.57,192.20 L 338.36,192.18 L 340.21,192.18 L 343.63,192.17 L 345.30,192.17 L 348.38,192.17 L 349.87,192.17 L 352.62,192.18 L 353.95,192.19 L 356.37,192.21 L 357.55,192.22 L 359.67,192.24 L 360.70,192.26 L 362.54,192.29 L 364.31,192.33 L 367.06,192.44 L 368.32,192.49 L 370.13,192.64 L 370.94,192.72 L 371.95,192.91 L 372.70,193.24 L 372.77,193.33 L 373.07,193.90 L 373.25,194.25 L 373.75,195.31 L 374.03,195.89 L 374.71,197.37 L 375.07,198.16 L 375.90,200.00 L 376.33,200.97 L 377.29,203.12 L 377.78,204.23 L 378.83,206.63 L 382.23,214.50 L 383.15,216.65 L 385.21,221.44 L 386.27,223.90 L 388.56,229.23 L 389.73,231.95 L 392.22,237.70 L 393.48,240.62 L 396.09,246.67 L 398.73,252.77 L 404.20,265.38 L 406.93,271.68 L 412.27,283.94 L 413.57,286.94 L 416.09,292.71 L 417.32,295.55 L 419.66,300.91 L 420.80,303.52 L 422.91,308.34 L 423.93,310.68 L 425.76,314.85 L 426.64,316.84 L 428.13,320.23 L 428.83,321.82 L 429.95,324.33 L 430.20,324.89 L 430.62,325.83 L 430.81,326.27 L 431.12,326.95 L 431.26,327.25 L 431.45,327.65 L 431.59,327.92 L 432.46,327.87 L 432.48,327.85 L 432.50,327.58 L 432.51,327.40 L 432.52,326.81 L 432.52,326.48 L 432.53,325.59 L 432.53,325.12 L 432.52,323.95 L 432.51,322.72 L 432.46,319.49 L 432.44,317.76 L 432.36,313.63 L 432.32,311.47 L 432.22,306.58 L 432.16,304.06 L 432.04,298.55 L 431.97,295.73 L 431.83,289.73 L 431.75,286.68 L 431.59,280.34 L 431.42,273.93 L 431.05,260.63 L 430.87,254.00 L 430.48,241.07 L 430.38,237.92 L 430.19,231.86 L 430.10,228.88 L 429.91,223.29 L 429.82,220.57 L 429.64,215.58 L 429.38,208.92 L 428.69,192.00 L 459.36,192.00 L 490.02,192.00 L 489.26,222.25 L 489.02,231.88 L 488.72,251.91 L 488.60,262.00 L 488.53,282.50 L 488.53,292.75 L 488.72,313.10 L 489.26,342.76 L 490.02,373.02 L 445.31,372.76 L 400.60,372.50 L 395.37,361.00 L 395.20,360.60 L 394.75,359.62 L 394.52,359.10 L 393.96,357.87 L 393.39,356.59 L 391.95,353.38 L 391.19,351.68 L 389.43,347.73 L 388.52,345.67 L 386.50,341.13 L 385.46,338.79 L 383.24,333.80 L 382.11,331.25 L 379.75,325.94 L 372.48,309.50 L 370.96,306.06 L 368.13,299.65 L 366.75,296.52 L 364.18,290.73 L 362.93,287.90 L 360.62,282.69 L 359.50,280.15 L 357.43,275.49 L 356.43,273.23 L 354.59,269.10 L 353.70,267.09 L 352.08,263.46 L 351.29,261.70 L 349.88,258.54 L 349.19,257.01 L 347.97,254.29 L 347.38,252.99 L 346.34,250.68 L 345.84,249.58 L 344.96,247.67 L 344.54,246.76 L 343.82,245.20 L 343.48,244.46 L 342.90,243.24 L 342.63,242.67 L 342.18,241.75 L 341.97,241.33 L 341.64,240.68 L 341.02,239.66 L 340.92,239.56 L 340.76,239.83 L 340.69,240.06 L 340.60,241.16 L 340.58,241.50 L 340.56,242.36 L 340.55,242.83 L 340.54,243.97 L 340.54,244.58 L 340.55,246.02 L 340.56,246.78 L 340.59,248.54 L 340.61,249.47 L 340.66,251.59 L 340.69,252.69 L 340.76,255.19 L 340.80,256.48 L 340.89,259.38 L 340.94,260.88 L 341.05,264.20 L 341.11,265.91 L 341.24,269.68 L 341.31,271.62 L 341.46,275.87 L 341.54,278.05 L 341.72,282.79 L 342.01,290.50 L 342.07,292.22 L 342.21,296.11 L 342.28,298.12 L 342.43,302.48 L 342.58,306.92 L 342.88,316.60 L 343.02,321.47 L 343.29,331.11 L 343.36,333.47 L 343.47,337.96 L 343.63,344.25 L 344.30,373.00 L 305.25,373.00 L 266.20,373.00 L 265.53,366.75 L 265.43,365.89 L 265.15,363.43 L 265.00,362.11 L 264.63,359.02 L 263.43,349.20 L 263.23,347.64 L 262.87,344.58 L 262.70,343.08 L 262.42,340.35 L 262.29,339.06 L 262.11,336.99 L 262.08,336.52 L 262.03,335.77 L 262.00,334.95 L 262.00,334.14 L 261.75,332.87 L 261.67,332.60 L 261.48,332.23 L 261.15,332.00 L 261.04,332.00 L 260.53,332.60 L 260.24,332.98 L 259.46,334.22 L 259.04,334.90 L 258.09,336.62 L 256.57,339.55 L 255.47,341.77 L 252.91,345.94 L 251.56,347.97 L 248.52,351.75 L 246.94,353.58 L 243.43,356.96 L 241.62,358.59 L 237.66,361.55 L 235.63,362.98 L 231.23,365.53 L 228.98,366.75 L 224.16,368.86 L 221.70,369.87 L 216.46,371.55 L 208.16,373.57 L 207.05,373.78 L 204.15,374.14 L 202.62,374.30 L 199.07,374.55 L 197.24,374.66 L 193.28,374.79 L 191.28,374.85 L 187.17,374.88 L 185.12,374.88 L 181.11,374.80 L 179.14,374.74 L 175.48,374.55 L 173.72,374.44 L 170.65,374.14 L 169.22,373.98 M 229.59,322.44 L 231.92,321.90 L 236.86,320.14 L 239.31,319.18 L 243.79,316.95 L 244.83,316.39 L 246.68,315.26 L 247.55,314.71 L 248.96,313.64 L 249.60,313.12 L 250.46,312.17 L 251.00,310.95 L 251.00,310.88 L 250.57,310.74 L 250.29,310.68 L 249.33,310.56 L 248.78,310.50 L 247.31,310.40 L 246.52,310.35 L 244.59,310.26 L 243.57,310.22 L 241.20,310.15 L 239.97,310.12 L 237.21,310.07 L 235.78,310.05 L 232.66,310.02 L 227.61,310.00 L 225.06,310.00 L 220.74,309.99 L 218.70,309.98 L 215.32,309.95 L 213.74,309.93 L 211.18,309.86 L 210.00,309.83 L 208.15,309.73 L 207.31,309.67 L 206.05,309.53 L 205.49,309.45 L 204.71,309.25 L 204.37,309.14 L 203.95,308.88 L 203.61,308.42 L 203.53,308.22 L 203.40,307.50 L 203.34,307.09 L 203.24,305.98 L 203.19,305.38 L 203.11,303.93 L 203.07,303.18 L 203.02,301.47 L 202.97,299.70 L 202.93,295.61 L 202.93,293.51 L 202.98,289.11 L 203.01,286.93 L 203.14,282.71 L 203.21,280.67 L 203.40,277.11 L 203.46,276.28 L 203.57,274.84 L 203.63,274.15 L 203.76,273.03 L 203.83,272.52 L 203.97,271.79 L 204.20,271.20 L 204.31,271.09 L 204.99,270.89 L 205.40,270.80 L 206.75,270.64 L 207.51,270.56 L 209.59,270.43 L 210.73,270.37 L 213.61,270.27 L 215.17,270.22 L 218.93,270.14 L 220.93,270.11 L 225.65,270.06 L 228.13,270.04 L 233.87,270.01 L 235.37,270.01 L 238.58,270.00 L 243.70,270.00 L 282.00,270.00 L 282.00,257.00 L 282.00,255.21 L 281.95,251.95 L 281.92,250.40 L 281.82,247.82 L 281.79,247.23 L 281.73,246.23 L 281.70,245.76 L 281.63,245.03 L 281.59,244.70 L 281.51,244.27 L 281.39,244.00 L 281.35,244.00 L 281.05,244.12 L 280.87,244.19 L 280.31,244.45 L 279.70,244.73 L 277.83,245.66 L 276.81,246.17 L 274.32,247.45 L 270.14,249.64 L 259.50,255.29 L 251.88,249.81 L 249.94,248.42 L 246.29,246.10 L 244.47,245.00 L 240.77,243.14 L 238.87,242.25 L 234.71,240.66 L 227.50,238.36 L 226.38,238.04 L 223.68,237.53 L 222.26,237.29 L 219.08,236.95 L 217.45,236.80 L 213.98,236.63 L 212.23,236.56 L 208.65,236.55 L 206.86,236.57 L 203.34,236.73 L 201.61,236.83 L 198.33,237.15 L 196.74,237.34 L 193.88,237.82 L 190.25,238.73 L 188.23,239.40 L 184.49,241.02 L 182.68,241.87 L 179.37,243.87 L 177.77,244.91 L 174.89,247.29 L 173.50,248.52 L 171.04,251.28 L 169.86,252.70 L 167.82,255.84 L 166.85,257.46 L 165.23,260.98 L 164.47,262.79 L 163.27,266.70 L 161.93,273.00 L 161.65,274.82 L 161.39,278.46 L 161.30,280.27 L 161.44,283.83 L 161.55,285.60 L 162.07,289.07 L 162.38,290.79 L 163.27,294.12 L 163.77,295.77 L 165.03,298.93 L 165.70,300.49 L 167.32,303.45 L 168.17,304.90 L 170.13,307.62 L 173.44,311.40 L 174.87,312.82 L 177.54,315.10 L 178.88,316.17 L 181.68,317.90 L 183.13,318.72 L 186.47,320.13 L 187.35,320.47 L 189.29,321.13 L 192.50,322.12 L 193.49,322.41 L 196.00,322.88 L 197.32,323.10 L 200.34,323.44 L 201.91,323.60 L 205.28,323.80 L 207.00,323.89 L 210.54,323.95 L 214.10,323.98 L 220.99,323.63 L 222.64,323.50 L 225.65,323.14 L 227.10,322.95 Z" fill="rgba(32,32,32,1)"/>
</g>
</svg>