<svg viewBox="204.8 413.696 679.936 98.304" xmlns="http://www.w3.org/2000/svg" style="max-height: 500px" width="679.936" height="98.304">
<g>
<path fill="rgba(242,242,242,1)" d="M 285.07,490.37 L 284.50,489.64 L 283.55,487.88 L 282.82,485.62 L 282.76,485.03 L 282.62,483.53 L 282.41,481.50 L 282.35,480.95 L 282.23,479.70 L 282.10,478.17 L 282.08,477.99 L 281.87,477.88 L 281.73,477.87 L 281.32,478.08 L 281.09,478.22 L 280.52,478.72 L 279.56,479.74 L 278.55,480.95 L 276.25,483.06 L 275.06,484.05 L 272.51,485.69 L 271.21,486.45 L 268.50,487.56 L 264.39,488.56 L 263.22,488.71 L 261.53,488.84 L 260.76,488.86 L 259.58,488.67 L 259.02,488.52 L 257.96,487.89 L 256.09,486.36 L 255.02,485.40 L 253.47,483.22 L 252.79,482.06 L 251.98,479.29 L 251.82,478.55 L 251.64,476.92 L 251.57,476.07 L 251.55,474.21 L 251.56,473.24 L 251.70,471.11 L 252.09,467.59 L 252.36,465.51 L 253.19,461.44 L 253.65,459.43 L 254.81,455.54 L 255.43,453.62 L 256.89,449.98 L 257.65,448.20 L 259.37,444.87 L 260.26,443.25 L 262.20,440.31 L 263.19,438.89 L 265.32,436.39 L 266.40,435.20 L 268.67,433.22 L 272.21,430.91 L 273.40,430.30 L 275.56,429.54 L 276.61,429.24 L 278.56,429.10 L 279.51,429.10 L 281.33,429.58 L 283.97,430.98 L 284.67,431.48 L 285.75,432.49 L 286.23,432.99 L 286.90,434.03 L 287.18,434.56 L 287.43,435.63 L 287.51,436.17 L 287.34,437.26 L 287.21,437.82 L 286.64,438.95 L 286.30,439.52 L 285.31,440.67 L 284.77,441.26 L 283.37,442.45 L 280.81,444.26 L 278.88,445.50 L 275.20,448.58 L 274.33,449.36 L 272.77,450.91 L 272.03,451.67 L 270.80,453.10 L 270.24,453.78 L 269.45,454.94 L 269.13,455.48 L 268.89,456.25 L 268.85,456.57 L 269.27,456.83 L 269.42,456.85 L 269.86,456.78 L 270.75,456.48 L 272.11,455.91 L 275.27,454.81 L 276.90,454.27 L 280.40,453.27 L 282.18,452.79 L 285.76,451.93 L 287.53,451.53 L 290.92,450.87 L 292.56,450.57 L 295.49,450.15 L 296.87,449.98 L 299.06,449.86 L 299.55,449.85 L 300.35,449.90 L 300.71,449.93 L 301.23,450.07 L 301.46,450.14 L 301.67,450.38 L 301.60,450.84 L 301.40,451.16 L 300.70,451.66 L 299.55,452.00 L 299.19,452.00 L 297.93,452.55 L 295.89,453.89 L 295.39,454.29 L 294.74,454.92 L 294.46,455.22 L 294.22,455.72 L 294.15,455.97 L 294.29,456.48 L 294.90,457.39 L 295.27,457.83 L 296.39,458.53 L 298.09,459.00 L 298.61,459.00 L 299.28,459.36 L 299.52,460.25 L 299.46,460.42 L 299.27,461.08 L 299.16,461.45 L 298.90,462.40 L 297.99,465.82 L 297.77,466.68 L 297.39,467.89 L 297.20,468.42 L 296.84,469.04 L 296.66,469.29 L 296.26,469.39 L 295.56,469.05 L 295.31,468.84 L 294.87,468.64 L 294.66,468.58 L 294.29,468.68 L 294.11,468.78 L 293.80,469.22 L 293.65,469.49 L 293.39,470.30 L 293.27,470.76 L 293.05,471.97 L 292.94,472.63 L 292.76,474.28 L 292.67,475.16 L 292.51,477.28 L 292.28,481.00 L 292.19,482.76 L 291.97,485.52 L 291.85,486.78 L 291.55,488.67 L 291.38,489.51 L 290.97,490.67 L 290.20,491.75 L 289.65,492.19 L 288.79,492.69 L 288.39,492.88 L 287.69,492.83 L 287.33,492.74 L 286.55,492.09 L 286.14,491.68 M 268.00,478.86 L 270.15,477.55 L 273.97,474.90 L 275.78,473.58 L 278.73,471.10 L 279.40,470.50 L 280.52,469.38 L 281.05,468.83 L 281.87,467.83 L 282.23,467.34 L 282.71,466.49 L 283.00,465.42 L 283.00,462.96 L 279.04,464.98 L 278.33,465.34 L 277.12,465.91 L 276.54,466.17 L 275.54,466.53 L 275.07,466.68 L 274.26,466.82 L 273.88,466.87 L 273.21,466.78 L 272.57,466.64 L 271.57,465.64 L 270.18,463.01 L 269.71,461.91 L 268.83,460.19 L 268.63,459.83 L 268.30,459.33 L 267.96,459.01 L 267.82,459.01 L 267.35,459.65 L 267.09,460.07 L 266.42,461.39 L 266.06,462.11 L 265.28,463.89 L 264.88,464.82 L 264.07,466.85 L 263.27,468.90 L 261.94,472.84 L 261.65,473.74 L 261.25,475.23 L 261.00,476.80 L 261.00,477.41 L 261.08,478.41 L 261.14,478.89 L 261.34,479.63 L 261.46,479.97 L 261.80,480.45 L 261.99,480.65 L 262.49,480.88 L 262.76,480.96 L 263.42,480.93 L 263.78,480.88 L 264.64,480.60 L 265.09,480.43 L 266.16,479.91 L 266.72,479.62 M 344.20,487.11 L 343.81,486.58 L 342.84,485.16 L 342.33,484.41 L 341.21,482.72 L 337.98,477.61 L 337.51,476.84 L 336.59,475.43 L 336.14,474.76 L 335.33,473.65 L 334.95,473.14 L 334.33,472.44 L 333.74,472.00 L 333.62,472.00 L 333.33,472.24 L 333.17,472.39 L 332.83,472.89 L 331.84,475.03 L 331.57,475.81 L 330.51,477.28 L 329.91,477.99 L 328.38,479.19 L 327.57,479.74 L 325.80,480.51 L 323.13,481.00 L 322.78,481.00 L 322.14,480.75 L 321.82,480.58 L 321.22,479.96 L 320.93,479.60 L 320.35,478.57 L 319.45,476.51 L 319.16,475.74 L 318.75,474.43 L 318.57,473.80 L 318.41,472.75 L 318.36,472.25 L 318.48,471.44 L 318.57,471.06 L 318.99,470.45 L 319.23,470.18 L 319.97,469.76 L 320.38,469.57 L 321.46,469.31 L 322.05,469.20 L 323.50,469.07 L 326.12,469.00 L 326.93,469.00 L 328.40,468.94 L 329.11,468.90 L 330.27,468.78 L 330.81,468.71 L 331.54,468.54 L 332.00,468.25 L 332.00,468.07 L 331.81,467.44 L 331.68,467.09 L 331.29,466.19 L 330.85,465.26 L 329.65,463.08 L 329.03,462.02 L 327.84,460.24 L 327.57,459.86 L 327.12,459.34 L 326.65,459.00 L 326.41,459.00 L 325.57,459.60 L 325.09,459.98 L 323.88,461.21 L 323.24,461.89 L 321.80,463.57 L 321.06,464.46 L 319.53,466.42 L 318.00,468.41 L 315.25,472.48 L 314.63,473.44 L 313.64,475.16 L 312.67,477.25 L 312.54,477.62 L 312.07,478.55 L 311.80,479.05 L 311.11,480.16 L 310.38,481.30 L 308.58,483.69 L 307.67,484.85 L 305.98,486.68 L 305.60,487.07 L 304.95,487.61 L 304.25,487.96 L 303.91,487.97 L 303.37,487.46 L 303.00,486.20 L 303.00,486.03 L 303.08,485.48 L 303.14,485.18 L 303.32,484.38 L 303.53,483.53 L 304.20,481.20 L 304.58,479.96 L 305.52,477.04 L 306.02,475.52 L 307.15,472.24 L 308.31,468.91 L 310.83,462.19 L 311.45,460.58 L 312.63,457.65 L 314.24,453.93 L 314.72,452.89 L 315.68,450.48 L 316.15,449.26 L 317.03,446.71 L 317.45,445.44 L 318.14,443.05 L 318.85,439.97 L 319.04,438.89 L 319.44,437.06 L 319.65,436.19 L 320.13,434.73 L 320.39,434.04 L 320.99,432.92 L 321.31,432.40 L 322.08,431.58 L 322.49,431.19 L 323.48,430.62 L 324.00,430.36 L 325.25,429.99 L 325.91,429.83 L 327.47,429.62 L 330.21,429.46 L 331.84,429.41 L 334.77,429.60 L 336.18,429.73 L 338.61,430.28 L 339.77,430.60 L 341.64,431.49 L 343.74,433.18 L 343.98,433.47 L 344.29,434.28 L 344.41,434.73 L 344.48,436.02 L 344.48,436.75 L 344.31,438.74 L 343.79,442.75 L 343.65,443.73 L 343.43,445.39 L 343.33,446.18 L 343.20,447.56 L 343.09,448.91 L 343.23,451.42 L 343.29,452.08 L 343.53,453.53 L 343.67,454.29 L 344.06,456.05 L 344.28,456.98 L 344.83,459.19 L 345.87,463.17 L 346.33,464.88 L 347.14,468.11 L 347.53,469.69 L 348.22,472.65 L 348.54,474.09 L 349.10,476.74 L 349.36,478.02 L 349.78,480.35 L 349.98,481.47 L 350.26,483.44 L 350.38,484.38 L 350.52,485.98 L 350.57,486.73 L 350.57,487.93 L 350.39,489.25 L 350.18,489.96 L 349.49,490.70 L 349.10,490.95 L 348.11,490.80 L 347.57,490.62 L 346.32,489.60 L 345.66,488.98 M 408.62,489.14 L 408.16,488.63 L 407.13,486.83 L 405.91,483.89 L 405.74,483.33 L 405.47,481.54 L 405.35,480.56 L 405.16,478.09 L 405.08,476.80 L 404.98,473.92 L 404.94,472.45 L 404.93,469.40 L 404.93,467.88 L 405.01,464.92 L 405.05,463.48 L 405.21,460.86 L 405.29,459.62 L 405.53,457.61 L 405.98,455.54 L 406.36,454.57 L 406.64,452.84 L 406.71,452.04 L 406.43,450.78 L 406.23,450.22 L 405.46,449.60 L 403.82,449.56 L 403.54,449.65 L 402.73,449.82 L 402.29,449.91 L 401.25,450.07 L 397.93,450.40 L 396.87,450.45 L 395.04,450.71 L 394.64,450.78 L 394.03,450.93 L 393.50,451.17 L 393.42,451.24 L 393.33,451.72 L 393.30,452.00 L 393.30,452.80 L 393.60,455.92 L 393.73,456.71 L 394.00,457.88 L 394.13,458.40 L 394.45,459.07 L 394.62,459.36 L 395.03,459.60 L 395.77,459.54 L 396.10,459.41 L 396.57,459.60 L 396.77,459.75 L 396.99,460.42 L 397.08,460.80 L 397.07,461.82 L 397.05,462.37 L 396.85,463.62 L 396.61,464.90 L 395.63,467.60 L 395.35,468.25 L 394.70,469.43 L 393.61,470.88 L 392.97,471.56 L 392.00,472.76 L 391.57,473.31 L 391.12,474.15 L 390.96,474.51 L 391.08,474.82 L 392.00,474.50 L 392.37,474.27 L 392.78,474.35 L 392.94,474.47 L 392.94,475.17 L 392.89,475.58 L 392.50,476.79 L 391.47,479.05 L 391.02,479.93 L 389.92,481.09 L 389.34,481.57 L 388.13,481.91 L 387.53,481.98 L 386.37,481.50 L 384.90,479.82 L 384.76,479.55 L 384.54,478.83 L 384.43,478.43 L 384.29,477.42 L 384.24,476.87 L 384.18,475.52 L 384.17,474.80 L 384.20,473.06 L 384.23,472.14 L 384.35,469.98 L 384.42,468.84 L 384.63,466.19 L 384.75,464.81 L 385.05,461.64 L 385.61,456.25 L 386.28,450.00 L 382.26,450.00 L 381.09,450.00 L 379.02,450.42 L 378.56,450.55 L 377.80,450.90 L 377.00,451.50 L 376.66,451.91 L 375.72,452.56 L 374.40,453.00 L 374.05,453.00 L 373.35,453.40 L 373.00,453.66 L 372.33,454.57 L 372.00,455.09 L 371.36,456.48 L 371.05,457.23 L 370.45,459.09 L 370.15,460.08 L 369.60,462.37 L 369.33,463.57 L 368.83,466.28 L 368.59,467.69 L 368.15,470.79 L 367.57,475.87 L 367.43,477.34 L 366.84,480.65 L 366.68,481.44 L 366.34,482.88 L 365.82,484.62 L 365.56,485.34 L 365.07,486.37 L 364.82,486.83 L 364.23,487.40 L 363.91,487.64 L 363.06,487.88 L 361.30,488.00 L 360.34,488.00 L 358.39,487.46 L 356.09,486.09 L 355.75,485.75 L 355.16,484.65 L 354.87,484.03 L 354.39,482.42 L 354.17,481.55 L 353.81,479.49 L 353.65,478.41 L 353.42,475.97 L 353.32,474.70 L 353.23,471.94 L 353.20,470.52 L 353.24,467.50 L 353.89,457.75 L 354.11,455.79 L 354.38,452.54 L 354.49,451.01 L 354.55,448.50 L 354.56,447.32 L 354.42,445.38 L 353.99,442.95 L 353.75,442.07 L 353.49,440.75 L 353.39,440.15 L 353.44,439.18 L 353.51,438.71 L 353.91,437.83 L 354.95,436.33 L 355.52,435.62 L 356.40,434.14 L 356.58,433.79 L 356.84,433.20 L 357.00,432.52 L 357.00,432.19 L 357.57,431.15 L 358.95,429.54 L 359.42,429.12 L 360.20,428.63 L 360.61,428.46 L 361.65,428.57 L 361.95,428.64 L 362.69,428.92 L 363.09,429.08 L 364.07,429.54 L 364.60,429.80 L 365.89,430.47 L 368.24,431.73 L 369.70,432.52 L 372.15,433.70 L 373.32,434.23 L 375.48,435.00 L 376.54,435.34 L 378.72,435.79 L 382.39,436.24 L 389.19,436.79 L 391.20,433.39 L 391.75,432.46 L 393.03,431.00 L 393.34,430.69 L 393.91,430.27 L 394.62,430.00 L 394.84,430.00 L 395.49,430.18 L 395.84,430.30 L 396.70,430.68 L 397.60,431.10 L 399.71,432.35 L 400.77,433.00 L 402.75,434.43 L 404.89,436.36 L 405.45,437.04 L 406.47,437.73 L 406.96,437.96 L 407.86,437.78 L 408.28,437.57 L 409.04,436.51 L 410.01,433.95 L 410.31,432.83 L 411.18,430.93 L 411.40,430.52 L 411.85,429.90 L 412.46,429.38 L 412.88,429.22 L 414.20,429.42 L 414.92,429.60 L 416.71,430.40 L 417.65,430.87 L 419.72,432.17 L 422.90,434.57 L 423.83,435.36 L 424.97,436.85 L 425.19,437.26 L 425.44,438.18 L 425.54,438.67 L 425.54,439.85 L 425.50,440.48 L 425.24,442.02 L 425.07,442.84 L 424.53,444.84 L 424.23,445.91 L 423.43,448.49 L 421.90,453.12 L 421.50,454.30 L 420.77,456.60 L 420.43,457.72 L 419.85,459.71 L 419.59,460.65 L 419.23,462.11 L 419.00,463.46 L 419.00,463.70 L 418.86,464.37 L 418.78,464.72 L 418.49,465.54 L 417.27,468.12 L 416.92,468.72 L 416.46,469.66 L 416.26,470.11 L 416.11,470.86 L 416.08,471.22 L 416.23,471.90 L 416.77,473.01 L 417.05,473.45 L 417.46,474.49 L 417.65,475.04 L 417.89,476.25 L 418.09,477.50 L 418.00,480.25 L 417.88,481.63 L 417.17,484.29 L 415.45,487.66 L 414.72,488.61 L 413.50,489.87 L 412.91,490.39 L 411.85,490.82 L 411.33,490.93 L 410.30,490.56 L 409.77,490.28 M 610.97,486.25 L 610.67,485.87 L 609.82,484.69 L 609.36,484.04 L 608.30,482.47 L 604.92,477.25 L 604.39,476.39 L 603.35,474.82 L 602.84,474.08 L 601.92,472.84 L 601.48,472.27 L 600.79,471.49 L 600.12,471.00 L 600.00,471.00 L 599.60,471.27 L 599.39,471.45 L 598.87,472.01 L 597.17,474.44 L 596.79,475.08 L 596.02,476.10 L 595.63,476.56 L 594.79,477.27 L 594.34,477.60 L 593.32,478.07 L 591.52,478.56 L 590.50,478.75 L 588.87,478.68 L 588.11,478.57 L 586.90,477.82 L 586.35,477.36 L 585.48,475.87 L 584.46,472.71 L 584.21,471.63 L 584.29,470.00 L 584.36,469.63 L 584.67,469.01 L 584.85,468.72 L 585.39,468.24 L 585.68,468.02 L 586.47,467.67 L 586.89,467.51 L 587.93,467.29 L 588.49,467.19 L 589.81,467.07 L 592.12,467.00 L 592.93,467.00 L 594.40,466.96 L 595.11,466.93 L 596.27,466.84 L 596.81,466.79 L 597.54,466.67 L 598.00,466.46 L 598.00,466.31 L 597.82,465.75 L 597.71,465.43 L 597.35,464.63 L 596.95,463.77 L 595.84,461.73 L 595.26,460.72 L 594.13,458.94 L 593.86,458.55 L 593.40,457.95 L 592.88,457.42 L 592.71,457.32 L 592.28,457.33 L 592.04,457.36 L 591.51,457.61 L 589.81,459.11 L 588.32,460.98 L 585.72,464.36 L 584.49,465.98 L 582.48,468.78 L 581.55,470.09 L 580.21,472.21 L 579.91,472.69 L 579.46,473.50 L 579.00,474.50 L 578.82,474.96 L 578.28,476.05 L 577.98,476.62 L 577.24,477.85 L 576.47,479.09 L 574.64,481.60 L 573.73,482.80 L 572.03,484.67 L 571.64,485.07 L 570.99,485.61 L 570.25,485.96 L 569.91,485.97 L 569.37,485.46 L 569.00,484.20 L 569.00,484.04 L 569.08,483.50 L 569.14,483.20 L 569.32,482.42 L 569.52,481.58 L 570.19,479.28 L 570.56,478.05 L 571.50,475.13 L 571.99,473.62 L 573.12,470.33 L 574.27,466.98 L 576.82,460.12 L 577.45,458.47 L 578.66,455.41 L 580.34,451.43 L 581.32,449.21 L 583.07,444.43 L 583.45,443.30 L 584.05,441.29 L 584.60,438.93 L 584.82,437.46 L 585.49,434.90 L 585.86,433.68 L 586.78,431.69 L 587.26,430.77 L 588.40,429.41 L 590.30,428.17 L 590.60,428.06 L 591.67,427.90 L 592.27,427.83 L 593.79,427.75 L 599.08,427.79 L 600.32,427.86 L 602.34,428.08 L 603.29,428.20 L 604.85,428.57 L 605.58,428.77 L 606.82,429.33 L 608.50,430.42 L 609.21,430.98 L 610.12,431.82 L 610.50,432.23 L 610.83,433.14 L 610.94,433.64 L 610.80,435.12 L 610.74,435.54 L 610.55,436.59 L 610.17,438.51 L 609.85,440.11 L 609.34,443.63 L 609.24,444.47 L 609.09,445.97 L 609.00,447.77 L 609.00,448.17 L 609.16,449.49 L 609.26,450.22 L 609.61,452.10 L 609.80,453.09 L 610.28,455.37 L 610.54,456.55 L 611.14,459.10 L 611.76,461.68 L 613.18,467.01 L 613.54,468.30 L 614.26,470.75 L 615.31,474.05 L 615.50,474.63 L 615.79,476.03 L 615.93,476.76 L 616.09,478.35 L 616.23,479.97 L 616.16,483.27 L 616.12,484.06 L 615.95,485.50 L 615.86,486.18 L 615.60,487.32 L 615.46,487.84 L 615.10,488.55 L 614.48,489.00 L 614.30,489.00 L 613.79,488.78 L 613.52,488.64 L 612.90,488.19 L 612.27,487.69 M 511.90,484.25 L 511.83,484.08 L 511.71,483.39 L 511.66,483.00 L 511.57,481.91 L 511.52,481.32 L 511.45,479.88 L 511.42,479.12 L 511.37,477.39 L 511.33,475.58 L 511.30,471.28 L 511.30,469.05 L 511.36,464.21 L 511.39,461.75 L 511.52,456.76 L 511.59,454.29 L 511.78,449.57 L 511.88,447.27 L 512.13,443.22 L 512.20,442.26 L 512.34,440.55 L 512.56,438.32 L 512.67,437.42 L 512.95,435.87 L 513.10,435.14 L 513.50,433.92 L 513.72,433.34 L 514.30,432.40 L 514.61,431.96 L 515.43,431.26 L 515.88,430.93 L 516.99,430.43 L 517.59,430.20 L 519.05,429.85 L 519.83,429.69 L 521.69,429.46 L 525.01,429.21 L 526.36,429.13 L 528.62,429.08 L 529.69,429.07 L 531.39,429.16 L 532.17,429.22 L 533.32,429.45 L 534.45,429.96 L 534.65,430.13 L 535.18,431.00 L 535.46,431.51 L 536.10,432.92 L 536.42,433.68 L 537.07,435.46 L 537.99,438.34 L 538.56,440.31 L 539.91,444.72 L 540.24,445.77 L 540.85,447.69 L 541.61,450.00 L 542.04,451.24 L 542.78,454.00 L 542.94,454.66 L 543.19,455.85 L 543.42,457.29 L 543.50,458.13 L 543.92,459.58 L 544.16,460.25 L 544.77,461.17 L 545.07,461.55 L 545.67,461.74 L 545.81,461.72 L 546.06,461.52 L 546.36,460.92 L 546.39,460.82 L 546.48,460.39 L 546.53,460.13 L 546.65,459.41 L 546.79,458.63 L 547.13,456.36 L 547.32,455.13 L 547.73,452.20 L 548.39,447.38 L 548.66,445.29 L 549.28,441.36 L 549.60,439.44 L 550.28,435.92 L 550.63,434.22 L 551.36,431.17 L 551.73,429.71 L 552.49,427.21 L 552.86,426.03 L 553.62,424.15 L 553.99,423.29 L 554.73,422.09 L 555.09,421.58 L 555.77,421.14 L 556.73,421.40 L 556.77,421.44 L 556.87,421.75 L 556.92,421.94 L 557.04,422.52 L 557.16,423.16 L 557.44,425.12 L 557.59,426.20 L 557.88,428.83 L 558.31,433.25 L 558.45,434.79 L 558.77,437.66 L 558.93,439.04 L 559.27,441.37 L 559.44,442.44 L 559.77,443.97 L 559.85,444.29 L 559.99,444.74 L 560.19,445.09 L 560.32,445.17 L 560.57,445.70 L 560.70,446.02 L 560.95,446.95 L 561.49,450.59 L 561.55,451.26 L 561.78,453.17 L 561.91,454.18 L 562.26,456.55 L 563.56,464.00 L 563.86,465.57 L 564.36,468.20 L 564.58,469.44 L 564.92,471.50 L 565.06,472.46 L 565.22,474.04 L 565.28,474.77 L 565.27,475.96 L 565.25,476.51 L 565.06,477.40 L 564.94,477.82 L 564.58,478.51 L 562.76,480.31 L 562.31,480.65 L 561.12,481.24 L 560.49,481.52 L 559.03,481.99 L 557.52,482.42 L 554.11,482.85 L 552.41,482.99 L 549.25,482.80 L 548.51,482.71 L 547.23,482.39 L 545.70,481.72 L 545.54,481.62 L 545.10,481.17 L 544.86,480.90 L 544.27,480.16 L 543.64,479.35 L 542.07,477.02 L 541.24,475.77 L 539.41,472.77 L 536.59,467.85 L 535.59,466.04 L 533.90,463.01 L 533.10,461.59 L 531.77,459.28 L 531.15,458.21 L 530.12,456.55 L 529.64,455.80 L 528.87,454.73 L 528.52,454.27 L 527.95,453.73 L 527.69,453.51 L 527.28,453.43 L 527.09,453.44 L 526.79,453.74 L 526.39,454.57 L 526.30,454.84 L 525.98,455.65 L 525.80,456.09 L 525.36,457.16 L 523.86,460.68 L 523.60,461.26 L 523.06,462.87 L 522.79,463.73 L 522.26,465.73 L 521.00,471.99 L 520.74,473.82 L 519.82,477.42 L 519.32,479.17 L 518.08,482.23 L 517.76,482.94 L 517.09,484.17 L 516.76,484.75 L 516.10,485.67 L 515.77,486.09 L 515.13,486.64 L 514.23,486.99 L 514.05,486.99 L 513.65,486.78 L 513.44,486.64 L 513.02,486.19 L 512.59,485.69 M 633.32,486.22 L 632.91,485.96 L 632.20,484.97 L 631.87,484.40 L 631.33,482.81 L 631.09,481.94 L 630.73,479.77 L 630.57,478.61 L 630.38,475.85 L 630.31,474.40 L 630.30,471.08 L 630.31,469.34 L 630.48,465.46 L 630.58,463.45 L 630.92,459.01 L 631.62,451.75 L 631.71,450.94 L 631.83,449.59 L 631.87,448.97 L 631.88,447.99 L 631.87,447.54 L 631.73,446.90 L 631.65,446.62 L 631.34,446.29 L 631.16,446.16 L 630.64,446.13 L 630.35,446.15 L 629.59,446.39 L 629.18,446.54 L 628.15,447.02 L 626.26,448.00 L 625.21,448.57 L 623.29,449.34 L 622.39,449.66 L 620.93,449.93 L 620.28,450.00 L 619.49,449.75 L 619.35,449.65 L 619.22,449.35 L 619.29,448.75 L 619.41,448.41 L 619.12,447.28 L 618.06,445.50 L 617.45,444.79 L 616.21,442.68 L 615.60,441.57 L 614.53,439.16 L 614.04,437.97 L 613.41,435.87 L 613.29,435.40 L 613.19,434.62 L 613.25,433.78 L 613.33,433.58 L 614.20,433.11 L 614.74,432.87 L 616.45,432.34 L 617.40,432.07 L 619.82,431.51 L 624.13,430.69 L 625.13,430.52 L 626.90,430.19 L 627.75,430.03 L 629.22,429.73 L 630.62,429.43 L 632.67,428.84 L 633.58,428.55 L 634.84,427.91 L 636.11,426.81 L 636.47,426.34 L 637.07,425.73 L 637.37,425.48 L 638.01,425.25 L 638.35,425.19 L 639.22,425.31 L 641.01,425.85 L 641.46,426.01 L 643.13,426.30 L 644.07,426.44 L 646.48,426.66 L 647.74,426.77 L 650.59,426.91 L 655.00,427.00 L 656.56,427.00 L 659.32,427.06 L 660.64,427.09 L 662.93,427.23 L 664.02,427.31 L 665.87,427.54 L 666.74,427.66 L 668.18,427.99 L 668.86,428.16 L 669.92,428.59 L 670.40,428.81 L 671.10,429.35 L 671.41,429.63 L 671.78,430.28 L 672.00,431.40 L 672.00,432.30 L 671.58,433.64 L 671.27,434.25 L 670.08,435.07 L 669.72,435.24 L 668.83,435.52 L 668.35,435.65 L 667.18,435.83 L 666.57,435.91 L 665.10,436.02 L 662.55,436.10 L 661.18,436.12 L 658.91,436.18 L 657.84,436.22 L 656.09,436.36 L 655.27,436.45 L 653.94,436.75 L 653.31,436.92 L 652.28,437.43 L 651.79,437.72 L 650.96,438.51 L 650.56,438.94 L 649.82,440.08 L 649.45,440.69 L 648.69,442.23 L 647.41,445.06 L 646.40,447.36 L 644.81,451.88 L 644.09,454.15 L 643.02,458.83 L 642.55,461.23 L 641.94,466.42 L 641.47,475.13 L 641.44,476.45 L 641.33,478.96 L 641.28,480.17 L 641.12,482.26 L 641.04,483.23 L 640.86,484.69 L 640.57,485.88 L 640.38,486.20 L 639.36,486.63 L 638.79,486.81 L 637.33,486.95 L 636.58,486.99 L 635.10,486.83 L 634.40,486.71 M 674.49,483.34 L 674.04,482.65 L 673.28,480.80 L 672.68,478.18 L 672.64,477.64 L 672.73,476.79 L 672.81,476.40 L 673.19,475.75 L 673.42,475.44 L 674.15,474.89 L 675.75,474.07 L 676.54,473.72 L 677.59,473.14 L 678.04,472.83 L 678.56,472.01 L 678.77,471.52 L 678.93,470.03 L 678.96,469.60 L 678.99,468.53 L 679.00,466.57 L 679.00,465.73 L 679.12,463.52 L 679.21,462.35 L 679.47,459.70 L 680.61,451.71 L 682.22,442.92 L 678.61,439.41 L 677.92,438.74 L 676.88,437.57 L 676.42,437.00 L 675.77,435.93 L 675.49,435.39 L 675.18,434.30 L 675.00,432.50 L 675.00,431.72 L 675.10,430.62 L 675.18,430.14 L 675.58,429.50 L 675.84,429.21 L 676.71,428.82 L 678.75,428.30 L 679.06,428.23 L 679.92,428.11 L 680.38,428.05 L 681.50,427.95 L 682.69,427.85 L 685.68,427.71 L 687.25,427.64 L 690.75,427.56 L 692.53,427.53 L 696.17,427.52 L 697.98,427.52 L 701.41,427.58 L 703.06,427.61 L 705.93,427.73 L 706.59,427.76 L 707.75,427.84 L 708.30,427.89 L 709.19,427.98 L 709.60,428.03 L 710.18,428.14 L 710.66,428.33 L 710.89,428.56 L 711.05,429.02 L 711.08,429.25 L 710.88,429.68 L 710.74,429.90 L 710.25,430.30 L 709.96,430.49 L 709.22,430.83 L 708.42,431.15 L 706.31,431.51 L 702.81,431.47 L 698.12,430.83 L 697.01,435.16 L 696.76,436.13 L 696.30,437.84 L 696.07,438.67 L 695.66,440.11 L 695.26,441.49 L 694.58,443.47 L 694.26,444.35 L 693.71,445.39 L 693.00,446.00 L 692.90,446.00 L 692.64,446.26 L 692.50,446.43 L 692.19,446.99 L 691.87,447.62 L 691.11,449.62 L 690.73,450.71 L 689.90,453.38 L 689.48,454.77 L 688.68,457.77 L 688.28,459.28 L 687.58,462.28 L 687.25,463.75 L 686.74,466.41 L 686.52,467.67 L 686.29,469.65 L 686.25,470.09 L 686.25,470.78 L 686.36,471.50 L 686.45,471.73 L 686.84,472.13 L 687.07,472.32 L 687.72,472.60 L 690.47,473.00 L 691.44,473.00 L 692.96,473.29 L 693.28,473.38 L 693.72,473.61 L 694.00,474.00 L 694.00,474.27 L 693.77,474.71 L 693.23,475.00 L 693.13,475.00 L 692.52,475.36 L 692.17,475.59 L 691.16,476.34 L 690.62,476.76 L 689.33,477.79 L 687.25,479.57 L 685.81,480.82 L 682.69,483.04 L 681.95,483.53 L 680.63,484.29 L 679.07,484.98 L 678.44,485.16 L 677.48,485.33 L 677.04,485.38 L 676.35,485.23 L 676.03,485.12 L 675.44,484.60 L 675.14,484.29 M 713.67,483.85 L 713.47,483.52 L 712.99,482.60 L 712.75,482.10 L 712.25,480.94 L 710.93,477.25 L 710.66,476.32 L 710.33,474.95 L 710.20,474.33 L 710.19,473.40 L 710.23,472.96 L 710.55,472.23 L 711.44,471.07 L 711.78,470.69 L 712.26,469.93 L 712.47,469.55 L 712.69,468.68 L 712.77,468.21 L 712.76,467.10 L 712.50,465.02 L 712.43,464.58 L 712.34,463.44 L 712.30,462.82 L 712.29,461.30 L 712.30,460.49 L 712.36,458.59 L 712.41,457.58 L 712.56,455.26 L 712.65,454.05 L 712.88,451.30 L 713.01,449.87 L 713.33,446.67 L 713.49,445.02 L 713.90,441.35 L 714.60,435.29 L 714.74,434.14 L 715.50,431.66 L 715.71,431.08 L 716.18,430.04 L 716.93,428.84 L 717.38,428.28 L 718.05,427.58 L 718.37,427.29 L 719.07,427.11 L 719.46,427.08 L 720.57,427.39 L 723.12,428.38 L 724.94,429.13 L 728.69,430.30 L 730.57,430.84 L 734.24,431.57 L 736.04,431.88 L 739.39,432.12 L 743.78,431.90 L 745.08,431.68 L 748.28,431.33 L 749.06,431.25 L 750.55,431.14 L 752.46,431.06 L 753.22,431.05 L 754.47,430.90 L 755.05,430.81 L 756.03,430.45 L 756.50,430.24 L 757.33,429.63 L 758.54,428.35 L 759.15,427.58 L 760.49,426.67 L 761.18,426.32 L 762.68,426.23 L 763.45,426.29 L 765.12,427.02 L 767.83,429.06 L 768.46,429.64 L 769.23,430.74 L 769.38,431.04 L 769.54,431.72 L 769.61,432.09 L 769.60,432.98 L 769.57,433.47 L 769.38,434.66 L 769.26,435.30 L 768.87,436.88 L 768.66,437.72 L 768.08,439.78 L 767.00,443.50 L 766.37,445.63 L 765.31,449.29 L 764.81,451.03 L 764.02,453.97 L 763.65,455.35 L 763.10,457.65 L 762.85,458.72 L 762.54,460.48 L 762.41,461.29 L 762.31,462.58 L 762.29,463.18 L 762.39,464.10 L 762.47,464.53 L 762.77,465.17 L 763.41,465.93 L 763.98,466.40 L 764.63,467.34 L 764.88,467.81 L 764.89,468.76 L 764.81,469.23 L 764.18,470.18 L 762.50,471.59 L 761.76,472.08 L 760.69,473.42 L 760.00,475.56 L 760.00,476.45 L 759.70,477.62 L 759.51,478.10 L 758.91,478.40 L 758.58,478.45 L 757.79,477.88 L 756.52,476.03 L 756.09,475.20 L 754.90,473.89 L 754.60,473.62 L 754.01,473.24 L 753.21,473.00 L 752.87,473.00 L 751.74,473.26 L 751.12,473.42 L 749.53,473.95 L 748.70,474.25 L 746.83,474.97 L 745.88,475.36 L 743.90,476.21 L 741.92,477.07 L 738.37,478.85 L 737.57,479.27 L 736.29,480.04 L 735.02,480.98 L 734.61,481.39 L 733.31,482.13 L 732.56,482.50 L 730.36,483.19 L 729.74,483.37 L 728.27,483.73 L 727.50,483.91 L 725.70,484.29 L 724.75,484.48 L 722.57,484.89 L 718.84,485.56 L 718.05,485.69 L 716.89,485.80 L 716.36,485.82 L 715.56,485.65 L 715.19,485.53 L 714.58,485.03 L 714.28,484.74 M 736.50,467.43 L 738.15,467.22 L 741.40,466.79 L 742.99,466.58 L 745.88,466.20 L 747.25,466.01 L 749.44,465.72 L 749.93,465.65 L 750.72,465.54 L 751.58,465.42 L 754.66,464.97 L 755.83,451.74 L 755.94,450.53 L 756.14,448.35 L 756.23,447.30 L 756.40,445.42 L 756.48,444.51 L 756.61,442.91 L 756.67,442.14 L 756.76,440.80 L 756.84,439.52 L 756.86,437.67 L 756.84,436.86 L 756.61,435.83 L 756.46,435.41 L 755.94,435.06 L 755.64,434.96 L 754.78,435.16 L 754.31,435.31 L 753.06,435.92 L 750.70,437.12 L 750.12,437.42 L 748.66,438.01 L 747.90,438.30 L 746.21,438.85 L 745.36,439.12 L 743.66,439.56 L 741.32,440.03 L 740.00,440.23 L 737.18,441.21 L 735.78,441.78 L 733.19,443.24 L 731.98,443.99 L 730.19,445.58 L 729.81,445.96 L 729.31,446.70 L 729.00,447.71 L 729.00,448.05 L 728.45,448.87 L 727.14,449.93 L 726.67,450.18 L 725.93,450.82 L 725.57,451.21 L 724.85,452.55 L 724.66,452.95 L 724.24,453.97 L 724.02,454.53 L 723.52,455.91 L 723.25,456.65 L 722.64,458.45 L 721.55,461.71 L 721.22,462.73 L 720.69,464.39 L 720.46,465.17 L 720.23,466.37 L 720.17,466.92 L 720.38,467.72 L 720.55,468.07 L 721.30,468.51 L 721.76,468.68 L 723.20,468.80 L 724.01,468.83 L 726.24,468.67 L 727.46,468.57 L 730.61,468.19 L 731.46,468.09 L 733.35,467.85 L 734.33,467.72 M 778.11,482.75 L 777.93,482.26 L 777.61,480.64 L 777.46,479.73 L 777.21,477.40 L 777.09,476.17 L 776.91,473.32 L 776.83,471.85 L 776.72,468.68 L 776.63,465.46 L 776.70,458.82 L 776.74,457.21 L 776.89,454.16 L 777.22,450.06 L 777.35,448.79 L 777.60,446.48 L 777.72,445.37 L 777.93,443.37 L 778.04,442.41 L 778.23,440.69 L 778.33,439.87 L 778.50,438.40 L 778.67,437.00 L 778.99,434.87 L 779.15,433.90 L 779.48,432.49 L 779.65,431.85 L 780.05,430.97 L 780.26,430.57 L 780.77,430.03 L 783.00,428.75 L 783.55,428.48 L 784.90,428.01 L 785.61,427.80 L 787.22,427.46 L 792.71,427.00 L 793.68,427.00 L 795.34,427.08 L 796.13,427.14 L 797.47,427.38 L 798.11,427.52 L 799.19,427.96 L 799.71,428.21 L 800.58,428.90 L 801.00,429.29 L 801.72,430.28 L 802.07,430.82 L 802.69,432.17 L 803.00,432.90 L 803.58,434.65 L 804.45,437.79 L 804.93,439.64 L 806.16,444.00 L 806.46,445.06 L 807.05,447.03 L 807.82,449.50 L 808.27,450.88 L 809.01,453.51 L 809.17,454.10 L 809.40,455.09 L 809.58,456.11 L 809.63,456.67 L 809.89,457.67 L 810.05,458.15 L 810.47,458.89 L 810.69,459.21 L 811.18,459.57 L 811.92,459.55 L 812.03,459.48 L 812.27,458.77 L 812.40,458.34 L 812.66,457.02 L 812.78,456.30 L 813.03,454.54 L 813.33,451.60 L 813.43,450.47 L 813.74,447.87 L 813.92,446.52 L 814.37,443.64 L 814.84,440.71 L 816.04,434.68 L 816.35,433.22 L 816.99,430.46 L 817.31,429.12 L 817.94,426.73 L 818.25,425.59 L 818.83,423.74 L 819.63,421.75 L 819.99,421.05 L 820.62,420.04 L 820.93,419.59 L 821.46,419.12 L 821.72,418.95 L 822.17,419.05 L 822.38,419.17 L 822.76,419.88 L 822.95,420.32 L 823.28,421.69 L 823.44,422.46 L 823.74,424.52 L 823.89,425.64 L 824.17,428.44 L 824.59,433.50 L 824.68,434.74 L 824.92,437.04 L 825.04,438.14 L 825.32,440.02 L 825.46,440.89 L 825.74,442.13 L 826.14,443.06 L 826.26,443.14 L 826.51,443.67 L 826.63,443.99 L 826.88,444.91 L 827.43,448.56 L 827.57,450.19 L 828.01,453.87 L 828.26,455.74 L 828.87,459.63 L 829.19,461.57 L 829.90,465.29 L 831.02,470.25 L 831.37,471.59 L 831.64,473.61 L 831.70,474.54 L 831.29,475.97 L 830.99,476.64 L 829.77,477.80 L 826.87,479.57 L 826.42,479.80 L 825.28,480.18 L 824.68,480.35 L 823.30,480.61 L 821.89,480.85 L 818.77,480.96 L 817.23,480.96 L 814.41,480.60 L 813.77,480.49 L 812.66,480.16 L 811.37,479.55 L 811.23,479.45 L 810.82,479.02 L 810.60,478.77 L 810.06,478.07 L 809.49,477.30 L 808.03,475.11 L 807.26,473.92 L 805.55,471.10 L 802.90,466.47 L 802.02,464.87 L 800.26,461.79 L 799.39,460.29 L 797.80,457.63 L 797.04,456.39 L 795.79,454.46 L 795.51,454.04 L 795.05,453.38 L 794.52,452.72 L 792.54,450.59 L 791.51,454.04 L 791.23,454.99 L 790.44,457.08 L 789.32,459.53 L 789.16,459.81 L 788.79,460.89 L 788.61,461.49 L 788.21,463.08 L 787.17,468.75 L 786.90,470.68 L 785.95,474.54 L 785.43,476.43 L 784.16,479.77 L 783.83,480.54 L 783.15,481.89 L 782.82,482.53 L 782.15,483.55 L 781.82,484.01 L 781.18,484.62 L 780.30,485.00 L 779.93,485.00 L 779.10,484.34 L 778.70,483.93 M 432.98,481.43 L 432.71,480.73 L 432.29,478.63 L 432.00,475.48 L 432.00,474.72 L 432.11,473.63 L 432.20,473.14 L 432.60,472.47 L 432.86,472.17 L 433.73,471.71 L 435.75,471.05 L 436.00,470.98 L 436.73,470.85 L 437.13,470.79 L 438.13,470.67 L 439.18,470.56 L 441.92,470.37 L 443.37,470.29 L 446.66,470.16 L 448.34,470.11 L 451.86,470.05 L 453.62,470.02 L 457.05,470.03 L 458.73,470.04 L 461.76,470.12 L 463.19,470.17 L 465.50,470.32 L 466.02,470.37 L 466.86,470.47 L 467.80,470.64 L 468.27,470.77 L 468.94,471.08 L 469.24,471.26 L 469.60,471.75 L 469.75,472.02 L 469.86,472.79 L 469.80,474.37 L 469.73,475.09 L 469.52,476.08 L 469.38,476.53 L 468.85,477.11 L 468.52,477.36 L 467.46,477.70 L 465.00,478.15 L 463.76,478.33 L 460.99,478.94 L 460.33,479.10 L 459.13,479.43 L 457.68,479.90 L 457.18,480.10 L 455.80,480.53 L 455.06,480.75 L 453.32,481.21 L 451.51,481.67 L 447.37,482.54 L 445.31,482.96 L 441.47,483.58 L 440.58,483.71 L 439.04,483.89 L 437.23,484.00 L 436.58,484.00 L 435.57,483.88 L 435.12,483.80 L 434.42,483.48 L 434.10,483.29 L 433.60,482.69 L 433.37,482.36 M 294.10,476.81 L 294.07,475.79 L 294.32,474.02 L 294.40,473.63 L 294.62,473.03 L 295.00,472.50 L 295.29,472.32 L 295.65,472.55 L 295.80,472.75 L 295.87,473.63 L 295.87,474.13 L 295.65,475.52 L 295.00,478.00 L 294.82,478.56 L 294.57,479.23 L 294.46,479.48 L 294.31,479.49 L 294.25,479.41 L 294.18,478.71 L 294.14,478.27 M 436.64,465.22 L 436.35,464.75 L 435.90,463.04 L 435.70,462.11 L 435.48,459.96 L 435.40,458.90 L 435.45,456.98 L 435.48,456.54 L 435.60,455.83 L 435.88,455.08 L 436.05,454.83 L 436.81,454.41 L 437.28,454.21 L 438.67,453.89 L 439.44,453.73 L 441.50,453.49 L 445.36,453.20 L 447.38,453.10 L 450.95,453.04 L 452.65,453.04 L 455.55,453.17 L 456.91,453.26 L 459.09,453.57 L 460.09,453.74 L 461.50,454.20 L 462.10,454.44 L 462.69,455.03 L 462.88,455.33 L 462.60,456.03 L 462.34,456.39 L 461.14,457.17 L 458.25,458.42 L 457.60,458.66 L 455.89,459.27 L 454.99,459.60 L 452.99,460.33 L 447.00,462.52 L 445.21,463.18 L 441.93,464.40 L 441.19,464.67 L 440.00,465.11 L 438.85,465.53 L 438.40,465.70 L 437.52,465.69 L 437.12,465.63 M 435.69,445.04 L 435.07,444.30 L 434.08,442.39 L 433.64,441.41 L 433.10,439.43 L 432.90,438.48 L 432.93,437.00 L 432.98,436.69 L 433.20,436.26 L 433.75,435.97 L 433.85,435.96 L 434.63,435.88 L 435.10,435.82 L 436.48,435.66 L 437.23,435.56 L 439.03,435.33 L 442.00,434.95 L 443.27,434.78 L 446.22,434.50 L 447.74,434.38 L 451.04,434.19 L 454.40,434.02 L 461.38,433.94 L 463.09,433.95 L 466.33,434.01 L 467.91,434.06 L 470.76,434.21 L 472.12,434.29 L 474.38,434.53 L 476.92,434.98 L 477.95,435.26 L 479.35,435.92 L 479.93,436.26 L 480.37,436.91 L 480.47,437.21 L 479.91,437.68 L 479.70,437.78 L 479.10,437.92 L 477.88,438.00 L 477.75,438.00 L 477.21,438.09 L 476.91,438.15 L 476.06,438.35 L 475.15,438.58 L 472.59,439.31 L 471.21,439.72 L 467.95,440.73 L 462.65,442.47 L 460.83,443.08 L 457.08,444.25 L 455.22,444.82 L 451.68,445.81 L 449.98,446.28 L 447.08,446.98 L 446.42,447.13 L 445.27,447.36 L 443.89,447.58 L 443.23,447.66 L 442.12,447.78 L 441.60,447.83 L 440.73,447.88 L 439.92,447.91 L 438.77,447.70 L 438.23,447.53 L 437.31,446.82 L 436.84,446.39 M 738.68,457.76 L 738.33,457.50 L 737.83,456.90 L 737.60,456.58 L 737.32,455.76 L 737.20,455.31 L 737.12,454.16 L 737.18,451.96 L 737.25,451.02 L 737.43,449.67 L 737.54,449.07 L 737.86,448.26 L 738.04,447.92 L 738.59,447.51 L 739.76,447.18 L 740.03,447.14 L 740.74,447.29 L 741.11,447.39 L 741.97,447.78 L 742.84,448.22 L 744.70,449.57 L 745.59,450.28 L 747.02,451.80 L 747.32,452.17 L 747.74,452.85 L 748.00,453.73 L 748.00,454.17 L 747.72,455.00 L 747.54,455.41 L 746.97,456.15 L 746.33,456.86 L 744.47,457.88 L 743.49,458.31 L 741.41,458.55 L 740.90,458.55 L 739.95,458.36 L 739.49,458.23 Z"/>
</g>
</svg>