<svg xmlns="http://www.w3.org/2000/svg" width="589" height="588" viewBox="0 0 589 588">
<g>
<path d="M 167.00,373.57 L 164.34,372.98 L 159.16,371.44 L 156.59,370.62 L 151.64,368.63 L 149.19,367.58 L 144.48,365.16 L 142.17,363.90 L 137.75,361.07 L 135.58,359.61 L 131.48,356.39 L 129.48,354.74 L 125.73,351.16 L 123.90,349.33 L 120.54,345.40 L 115.97,339.16 L 114.67,337.18 L 112.35,333.17 L 111.23,331.15 L 109.26,327.02 L 108.32,324.93 L 106.69,320.64 L 105.92,318.47 L 104.62,313.98 L 104.01,311.70 L 103.03,306.98 L 102.58,304.58 L 101.91,299.58 L 101.62,297.04 L 101.25,291.73 L 101.02,283.36 L 101.02,280.28 L 101.22,274.48 L 101.36,271.63 L 101.86,266.26 L 102.14,263.62 L 102.95,258.61 L 103.40,256.15 L 104.53,251.45 L 105.14,249.14 L 106.62,244.69 L 107.40,242.50 L 109.23,238.25 L 110.19,236.15 L 112.39,232.04 L 116.13,225.96 L 118.02,223.14 L 122.12,218.00 L 124.22,215.51 L 128.79,211.02 L 131.14,208.86 L 136.23,204.99 L 138.85,203.13 L 144.53,199.86 L 147.45,198.29 L 153.76,195.58 L 157.01,194.29 L 164.01,192.11 L 167.61,191.08 L 175.36,189.41 L 187.89,187.43 L 191.64,186.97 L 199.00,186.39 L 202.66,186.17 L 209.93,186.07 L 213.57,186.09 L 220.90,186.48 L 232.14,187.60 L 235.98,188.10 L 242.99,189.34 L 246.40,190.01 L 252.76,191.66 L 255.88,192.54 L 261.88,194.67 L 270.79,198.51 L 272.06,199.11 L 274.16,200.09 L 275.14,200.54 L 276.72,201.20 L 277.45,201.48 L 278.57,201.79 L 279.08,201.90 L 279.82,201.86 L 280.14,201.79 L 280.56,201.37 L 280.74,201.11 L 280.91,200.31 L 280.96,199.86 L 280.95,198.65 L 280.81,196.38 L 280.50,192.50 L 326.54,192.24 L 372.58,191.98 L 381.26,212.24 L 383.01,216.32 L 386.43,224.29 L 388.12,228.24 L 391.43,235.91 L 393.06,239.70 L 396.24,247.05 L 397.80,250.67 L 400.83,257.66 L 402.33,261.10 L 405.20,267.69 L 406.61,270.94 L 409.31,277.11 L 410.64,280.14 L 413.15,285.86 L 414.38,288.66 L 416.69,293.89 L 417.82,296.45 L 419.92,301.17 L 420.94,303.46 L 422.81,307.63 L 423.71,309.65 L 425.34,313.24 L 426.12,314.96 L 427.50,317.95 L 428.15,319.36 L 429.25,321.70 L 429.77,322.79 L 430.59,324.46 L 430.96,325.21 L 431.49,326.18 L 431.92,326.81 L 432.04,326.85 L 432.24,326.74 L 432.33,326.65 L 432.48,326.27 L 432.55,326.04 L 432.65,325.33 L 432.70,324.94 L 432.75,323.89 L 432.78,323.31 L 432.79,321.87 L 432.79,321.10 L 432.77,319.23 L 432.75,318.24 L 432.68,315.91 L 432.53,311.86 L 432.49,310.80 L 432.39,308.05 L 432.34,306.57 L 432.22,303.09 L 432.16,301.27 L 432.03,297.20 L 431.96,295.11 L 431.82,290.58 L 431.68,285.97 L 431.39,276.00 L 430.97,261.00 L 430.84,256.12 L 430.55,245.89 L 430.40,240.80 L 430.10,231.01 L 430.03,228.64 L 429.89,224.18 L 429.82,222.01 L 429.69,218.05 L 429.62,216.15 L 429.51,212.84 L 429.35,208.75 L 428.69,192.00 L 459.34,192.00 L 490.00,192.00 L 489.25,221.75 L 489.13,226.48 L 488.94,236.23 L 488.85,241.14 L 488.71,251.19 L 488.59,261.29 L 488.53,281.96 L 488.53,292.31 L 488.71,312.88 L 488.77,317.98 L 488.93,328.03 L 489.25,342.76 L 489.99,373.02 L 445.29,372.76 L 400.58,372.50 L 394.92,360.00 L 394.53,359.14 L 393.44,356.71 L 392.85,355.39 L 391.40,352.15 L 390.63,350.44 L 388.89,346.51 L 387.98,344.48 L 386.00,340.01 L 384.98,337.72 L 382.82,332.85 L 381.72,330.38 L 379.45,325.24 L 372.49,309.50 L 370.93,305.96 L 368.03,299.40 L 366.62,296.21 L 364.01,290.32 L 362.75,287.45 L 360.42,282.20 L 359.29,279.65 L 357.22,274.99 L 356.21,272.73 L 354.39,268.64 L 353.51,266.67 L 351.91,263.11 L 351.14,261.39 L 349.76,258.33 L 349.09,256.86 L 347.91,254.27 L 347.34,253.03 L 346.34,250.87 L 345.86,249.83 L 345.03,248.07 L 344.63,247.23 L 343.95,245.83 L 343.63,245.17 L 343.08,244.10 L 342.83,243.61 L 342.40,242.83 L 342.20,242.48 L 341.89,241.97 L 341.26,241.25 L 341.13,241.21 L 340.92,241.32 L 340.82,241.44 L 340.69,242.14 L 340.63,242.58 L 340.57,244.18 L 340.56,244.66 L 340.56,245.83 L 340.56,246.46 L 340.58,247.97 L 340.60,248.78 L 340.64,250.67 L 340.66,251.67 L 340.72,254.00 L 340.76,255.22 L 340.85,258.01 L 340.89,259.46 L 341.00,262.76 L 341.06,264.48 L 341.20,268.33 L 341.27,270.32 L 341.43,274.76 L 341.52,277.06 L 341.70,282.13 L 342.01,290.50 L 342.08,292.29 L 342.22,296.30 L 342.29,298.37 L 342.44,302.83 L 342.59,307.37 L 342.89,317.16 L 343.04,322.08 L 343.31,331.74 L 343.37,334.09 L 343.49,338.55 L 343.64,344.76 L 344.30,373.02 L 305.45,372.76 L 266.59,372.50 L 265.93,369.00 L 265.88,368.76 L 265.76,367.97 L 265.69,367.53 L 265.53,366.38 L 265.45,365.76 L 265.26,364.30 L 265.16,363.54 L 264.94,361.83 L 264.72,360.06 L 264.24,355.99 L 263.50,349.50 L 263.25,347.30 L 262.75,343.23 L 262.51,341.27 L 262.04,337.97 L 261.93,337.21 L 261.72,335.90 L 261.62,335.28 L 261.44,334.28 L 261.35,333.83 L 261.21,333.20 L 261.03,332.72 L 260.93,332.61 L 260.46,333.02 L 260.19,333.31 L 259.43,334.40 L 259.03,335.02 L 258.09,336.66 L 256.57,339.55 L 256.01,340.68 L 254.68,342.99 L 253.98,344.15 L 252.39,346.48 L 250.76,348.80 L 246.95,353.27 L 244.99,355.44 L 240.83,359.28 L 239.78,360.18 L 237.69,361.80 L 234.59,363.88 L 232.83,364.94 L 228.82,366.93 L 226.75,367.89 L 222.29,369.64 L 220.02,370.47 L 215.30,371.89 L 208.16,373.59 L 207.05,373.80 L 204.15,374.15 L 202.61,374.31 L 199.05,374.55 L 197.22,374.66 L 193.26,374.79 L 191.26,374.85 L 187.15,374.87 L 185.09,374.87 L 181.08,374.79 L 179.11,374.74 L 175.45,374.55 L 173.69,374.44 L 170.63,374.14 L 169.20,373.98 M 229.59,322.44 L 232.04,321.88 L 237.18,320.02 L 238.45,319.51 L 240.87,318.42 L 242.06,317.86 L 244.23,316.71 L 245.28,316.14 L 247.07,315.00 L 247.91,314.44 L 249.18,313.40 L 249.75,312.89 L 250.38,312.01 L 250.46,310.93 L 250.42,310.87 L 249.89,310.74 L 249.56,310.68 L 248.50,310.56 L 247.90,310.51 L 246.34,310.40 L 245.51,310.35 L 243.51,310.27 L 242.46,310.22 L 240.08,310.15 L 238.85,310.12 L 236.13,310.07 L 226.96,310.00 L 204.04,310.00 L 203.48,307.75 L 203.45,307.60 L 203.38,306.94 L 203.35,306.56 L 203.29,305.50 L 203.27,304.92 L 203.22,303.49 L 203.20,302.74 L 203.18,301.02 L 203.15,299.23 L 203.15,294.97 L 203.22,288.00 L 203.50,270.50 L 242.50,270.00 L 281.50,269.50 L 281.78,256.66 L 281.82,254.85 L 281.82,251.62 L 281.81,250.09 L 281.72,247.62 L 281.70,247.06 L 281.63,246.12 L 281.59,245.68 L 281.50,245.01 L 281.45,244.71 L 281.35,244.34 L 281.17,244.16 L 281.11,244.18 L 280.78,244.34 L 280.58,244.43 L 280.00,244.72 L 279.37,245.03 L 277.49,245.98 L 276.47,246.50 L 273.99,247.77 L 269.89,249.90 L 259.50,255.29 L 251.88,249.82 L 250.02,248.48 L 246.12,246.09 L 244.14,244.94 L 240.02,242.94 L 237.93,241.98 L 233.64,240.37 L 231.47,239.61 L 227.05,238.40 L 224.83,237.85 L 220.31,237.06 L 218.05,236.71 L 213.49,236.34 L 211.21,236.21 L 206.65,236.28 L 199.85,236.88 L 198.42,237.08 L 195.78,237.55 L 194.49,237.79 L 192.10,238.35 L 189.77,238.94 L 185.69,240.50 L 183.73,241.35 L 180.15,243.54 L 174.98,247.68 L 173.63,248.92 L 171.22,251.63 L 170.07,253.01 L 168.05,255.96 L 167.09,257.47 L 165.46,260.64 L 164.71,262.25 L 163.49,265.61 L 162.94,267.32 L 162.14,270.85 L 161.80,272.64 L 161.43,276.31 L 161.30,278.16 L 161.36,281.95 L 161.96,287.72 L 162.33,290.03 L 163.44,294.34 L 164.06,296.44 L 165.66,300.32 L 166.52,302.21 L 168.60,305.67 L 169.70,307.35 L 172.25,310.38 L 173.59,311.83 L 176.62,314.42 L 178.19,315.65 L 181.67,317.79 L 183.47,318.79 L 187.41,320.47 L 193.82,322.46 L 194.81,322.70 L 197.30,323.09 L 198.60,323.27 L 201.59,323.54 L 203.12,323.66 L 206.43,323.81 L 208.11,323.87 L 211.56,323.89 L 215.02,323.89 L 221.61,323.53 L 223.17,323.41 L 225.99,323.08 L 227.34,322.90 Z" fill="rgba(221,221,221,1)"/>
</g>
</svg>